<?xml version="1.0" encoding="utf-8"?>
<!-- Generator: Adobe Illustrator 28.2.0, SVG Export Plug-In . SVG Version: 6.00 Build 0)  -->
<svg version="1.1" id="Layer_1" xmlns="http://www.w3.org/2000/svg" xmlns:xlink="http://www.w3.org/1999/xlink" x="0px" y="0px"
	 viewBox="0 0 352 176" style="enable-background:new 0 0 352 176;" xml:space="preserve">
<style type="text/css">
	.st0{fill:none;}
	.st1{fill:#FFFFFF;}
	.st2{fill-rule:evenodd;clip-rule:evenodd;fill:#FFFFFF;}
	.st3{opacity:0.7;}
</style>
<g>
	<rect class="st0" width="352" height="176"/>
	<path class="st1" d="M260.5,96.3c0.6-2.7,1-5.5,1-8.3c0-0.4,0-0.7,0-1.1l-0.6,0l-9.3,0.2c-0.1-1.9-0.3-3.7-0.7-5.6l9.9-0.8
		c-0.6-3.2-1.7-6.2-3.1-9.2l-0.6,0.1l-8.9,1.8c-0.9-1.9-2-3.7-3.2-5.5l9.1-2.5c-2-2.9-4.4-5.6-7.1-8.2l-0.5,0.2l-7.7,3.4
		c-1.7-1.6-3.5-3.2-5.5-4.7l7.6-4.1c-3.2-2.4-6.6-4.6-10.4-6.6l-0.4,0.3l-5.9,4.7c-2.2-1.2-4.6-2.3-7-3.3l5.5-5.3
		c-4.1-1.7-8.3-3.2-12.8-4.5l-0.2,0.4l-3.6,5.5c-2.7-0.8-5.6-1.5-8.5-2l3-6.1c-4.6-0.9-9.4-1.5-14.3-1.9l-0.1,0.4l-1,6
		c-2.8-0.2-5.7-0.3-8.7-0.4l0.2-6.4c-0.3,0-0.5,0-0.8,0c-4.7,0-9.3,0.2-13.7,0.7l1.7,6.3c-3,0.3-6,0.7-8.8,1.3l-2.6-6.2
		c-4.7,0.9-9.3,2-13.6,3.4l4.4,5.7c-2.6,0.8-5.2,1.7-7.6,2.7l-5.2-5.5c-4.1,1.7-8,3.6-11.6,5.7l6.7,4.7c-2.3,1.3-4.4,2.7-6.4,4.1
		l-7.4-4.3c-3.2,2.4-6.1,4.9-8.7,7.6l8.5,3.3c-1.5,1.6-2.9,3.2-4.1,4.9l-8.9-2.8c-2.1,2.8-3.7,5.8-5,8.8l9.6,1.6
		c-0.8,1.9-1.4,3.8-1.9,5.7l-9.8-1c-0.6,2.7-1,5.5-1,8.3c0,0.4,0,0.7,0,1.1l9.9-0.2c0.1,1.9,0.3,3.8,0.7,5.6l-9.9,0.8
		c0.6,3.2,1.7,6.2,3.1,9.2l9.4-2c0.9,1.9,2,3.7,3.2,5.5l-8.6,2.4l-0.6,0.2c2,2.9,4.4,5.6,7.1,8.2l8.2-3.6c1.7,1.6,3.5,3.2,5.5,4.7
		l-7.2,3.9l-0.4,0.2c3.2,2.4,6.6,4.6,10.4,6.6l6.3-5c2.2,1.2,4.6,2.3,7,3.3l-5.5,5.3c4,1.7,8.3,3.2,12.8,4.5l3.9-5.9
		c2.8,0.8,5.6,1.4,8.5,2l-2.8,5.7l-0.2,0.4c4.6,0.9,9.4,1.6,14.3,1.9l1.1-6.4c2.8,0.2,5.7,0.3,8.7,0.4l-0.2,6.4c0.3,0,0.5,0,0.8,0
		c4.7,0,9.3-0.2,13.7-0.7l-1.7-6.3c3-0.3,6-0.7,8.8-1.3l2.6,6.2c4.7-0.9,9.3-2,13.6-3.3l-4.4-5.7c2.6-0.8,5.1-1.7,7.6-2.7l5.2,5.4
		c4.1-1.7,8-3.6,11.6-5.7l-6.7-4.7c2.3-1.3,4.4-2.7,6.4-4.1l7.4,4.3c3.2-2.4,6.1-4.9,8.7-7.6l-8.5-3.3c1.5-1.6,2.9-3.2,4.1-4.9
		l8.9,2.8c2.1-2.8,3.7-5.8,5.1-8.8l-9.6-1.6c0.8-1.9,1.4-3.8,1.9-5.7L260.5,96.3z M112.8,87.7V73.9l0,0h0c0.2-1.9,1.7-3.4,3.7-3.4
		c1.9,0,3.4,1.4,3.7,3.2c0,0,0,0.1,0,0.1s0,0,0,0.1v0c0,0.2,0,0.7,0,0.8c0,0,0,0.4,0.2,0.4h3.5v0c1.4,0.1,2.5,1.4,2.5,3
		c0,1.6-1.1,2.9-2.5,3h0h-3.5c-0.2,0-0.2,0.3-0.2,0.3v3.2c0,0-0.1,0.4,0.4,0.5h6.3c0,0,0.4-0.1,0.4-0.6V74h0c0,0,0,0,0,0v0
		c0.2-1.9,1.8-3.5,3.7-3.5c2,0,3.6,1.5,3.7,3.5l0,0v13.8c0,0-0.1,2.3-2.5,2.5H116C113,90.3,112.8,87.7,112.8,87.7z M147.4,102.7
		L147.4,102.7c-0.2,1.9-2,3.4-4.1,3.4c-2.1,0-3.9-1.5-4.1-3.4c0,0,0,0,0,0v0l0,0c0,0,0,0,0,0v0c0,0,0,0,0,0h0v-2.4
		c0-0.3-0.5-0.2-0.5-0.2h-21.4c-1.3-0.2-2.3-1.5-2.3-3.1c0-1.6,1-2.9,2.3-3.1c0,0,0,0,0,0v0h28.1c0,0,2,0.1,2,2.6V102.7
		C147.4,102.7,147.4,102.7,147.4,102.7L147.4,102.7L147.4,102.7L147.4,102.7z M150.2,83.9C150.2,83.9,150.2,83.9,150.2,83.9
		L150.2,83.9C150.2,84,150.2,84,150.2,83.9l-2.8,0.1c-0.2,0-0.3,0.2-0.3,0.3v3.5v0v0c0,0,0,0,0,0c-0.2,2.1-2,3.7-4.1,3.7
		c-2.1,0-3.9-1.6-4.1-3.7c0,0,0,0,0,0v0v0V73.6h0c0.2-2.1,1.9-3.8,4.1-3.8c2.1,0,3.9,1.6,4.1,3.7c0,0,0,0.1,0,0.1v0v0v3.6
		c0,0.1,0.1,0.3,0.3,0.3l2.7,0.1l0,0c0,0,0,0,0,0c1.3,0.2,2.4,1.5,2.4,3.1C152.6,82.4,151.5,83.8,150.2,83.9z M177.7,86.1
		L177.7,86.1c-3.5,14.1-15.2,17.8-15.2,17.8v0c-1.7,0.5-3.6-0.4-4.2-2.3c0,0,0,0,0,0l0,0c0,0,0,0,0,0c-0.8-2.7,2-4.4,2-4.4l0,0
		c5.7-2.4,8.4-8,8.4-8c0.1-0.3-0.1-0.3-0.1-0.3h-8v0c0,0,0,0,0,0c-1.6-0.1-2.8-1.5-2.8-3.1c0-1.6,1.2-2.9,2.8-3.1h0c0,0,0,0,0,0v0
		h9.8c0.2,0,0.2-0.2,0.2-0.2c0.6-1.4,0.7-3.7,0.7-3.7c0-0.2-0.2-0.2-0.2-0.2h-10.3v0c-1.6-0.1-2.9-1.5-2.9-3.2c0-1.7,1.3-3,2.9-3.2
		v0h16.4c1.2,0.2,1.4,1.9,1.4,1.9S179.1,80.8,177.7,86.1z M195.3,89.2L195.3,89.2L195.3,89.2l-4,0.1v0c-0.4,0-0.4,0.6-0.4,0.6v12.7
		h0c-0.2,1.9-1.8,3.5-3.8,3.5h0h0h0h0h0h0c-2,0-3.7-1.5-3.8-3.5h0V73.7h0c0.2-1.9,1.8-3.5,3.8-3.5c2,0,3.7,1.5,3.8,3.5h0v8.2
		c0,0,0,0.6,0.4,0.6l3.9,0.1v0c1.4,0.2,2.5,1.6,2.5,3.3C197.7,87.6,196.6,89,195.3,89.2z M201.7,84.8l0.1-0.2l0,0c0,0,0,0,0,0l0,0
		c0,0,0,0,0.1-0.1c0.4-0.5,1-1.2,2.2-1.4v0l0.2,0c2.9-0.6,5.6-2.1,8.1-4.5c1.5-1.4,2.6-2.9,3.2-4.4c0.1-0.4,1.2-3.4,4.3-3.4
		c3.1,0,4.1,3,4.2,3.4c0.6,1.4,1.7,2.9,3.2,4.4c2.5,2.3,5.2,3.9,8.1,4.5c0,0,0.2,0,0.2,0l0,0c1.2,0.3,1.9,0.9,2.2,1.5l0,0
		c0,0,0,0,0,0l0,0c0,0,0,0,0,0l0.1,0.2l0,0c0.4,0.7,0.6,1.5,0.4,2.4h0l0,0.2c0,0,0,0,0,0c0,0,0,0,0,0c0,0,0,0,0,0c0,0,0,0,0,0l0,0
		l0,0c0,0,0,0.2,0,0.2h0c-0.2,0.8-0.7,1.5-1.4,2.1c-0.8,0.6-1.8,0.8-2.9,0.7c0,0-0.1,0-0.1,0c-3.5-0.8-6.8-2.4-10-5
		c-1.7-1.4-3.1-2.9-4.2-4.3c-1,1.5-2.4,2.9-4.1,4.3c-3.1,2.5-6.5,4.2-10,5c0,0-0.1,0-0.1,0c-1.1,0.2-2.1-0.1-2.9-0.7
		c-0.7-0.5-1.1-1.2-1.3-2.1h0l0-0.2l0,0c0,0,0,0,0,0v0c0,0,0,0,0,0c0,0,0,0,0,0s0,0,0,0v0c0,0,0,0,0,0l0,0l0-0.2h0
		C201.1,86.4,201.3,85.5,201.7,84.8L201.7,84.8z M235.7,105h-9.2h-22.7c-2.1-0.1-3.5-1.6-3.5-3.4c0-1.8,1.4-3.3,3.5-3.4v0h31.9v0
		c2.1,0.1,3.5,1.6,3.5,3.4C239.2,103.3,237.8,104.8,235.7,105z"/>
</g>
</svg>
